<?xml version="1.0" standalone="no"?>
<!DOCTYPE svg PUBLIC "-//W3C//DTD SVG 20010904//EN"
 "http://www.w3.org/TR/2001/REC-SVG-20010904/DTD/svg10.dtd">
<svg version="1.0" xmlns="http://www.w3.org/2000/svg"
 width="500.000000pt" height="500.000000pt" viewBox="0 0 500.000000 500.000000"
 preserveAspectRatio="xMidYMid meet">

<g transform="translate(0.000000,500.000000) scale(0.100000,-0.100000)"
fill="#000000" stroke="none">
<path d="M3025 3593 c-11 -2 -30 -6 -42 -9 -27 -5 -29 -19 -7 -41 20 -20 13
-72 -13 -107 -10 -13 -37 -36 -60 -50 -39 -26 -43 -26 -76 -12 -64 26 -95 101
-70 166 9 22 13 43 10 47 -4 3 -33 -2 -65 -11 -32 -9 -74 -16 -94 -16 l-36 0
13 -37 c8 -21 20 -51 29 -68 17 -32 21 -73 8 -91 -18 -27 -54 -35 -128 -29
-60 6 -78 12 -89 28 -21 30 -19 76 5 115 11 18 20 34 20 36 0 5 -109 -12 -161
-25 -48 -13 -59 -22 -39 -34 15 -9 40 -73 40 -101 0 -32 -44 -58 -122 -74 -56
-11 -63 -10 -87 8 -30 22 -39 77 -22 138 l10 36 -112 -4 c-106 -3 -117 -6
-212 -47 -119 -52 -162 -82 -181 -127 -18 -43 -12 -71 37 -161 45 -82 49 -124
19 -183 -34 -67 -21 -120 30 -120 21 0 35 8 46 26 16 24 16 29 0 79 -26 83
-30 145 -14 185 19 43 115 160 133 160 28 0 40 -33 41 -116 1 -81 2 -84 37
-123 44 -49 52 -76 43 -149 -16 -130 -17 -148 -4 -172 8 -15 24 -26 40 -28 24
-3 28 1 38 40 10 36 9 55 -9 127 -20 77 -20 86 -6 108 13 20 22 23 48 18 48
-9 77 25 83 101 7 85 12 102 34 124 27 27 46 25 76 -7 19 -20 27 -24 36 -15
18 18 53 14 71 -6 22 -25 21 -60 -3 -117 -11 -26 -20 -59 -20 -75 0 -30 22
-60 44 -60 31 0 38 28 31 127 -6 86 -4 102 13 133 35 63 104 66 142 6 27 -44
50 -52 92 -30 18 10 64 19 103 21 58 4 76 1 102 -16 49 -31 52 -64 14 -136
-33 -63 -39 -103 -19 -123 21 -21 56 -14 75 14 15 23 15 34 5 96 -14 77 -3
120 31 126 51 10 90 -90 87 -226 -3 -127 -4 -122 30 -122 45 0 58 34 36 99
-24 74 -21 103 14 136 31 30 50 78 50 128 0 65 58 118 96 86 13 -10 14 -25 9
-81 -6 -59 -5 -69 10 -75 28 -10 43 21 37 73 -4 40 0 51 33 99 63 92 61 173
-7 250 -59 67 -124 95 -213 94 -38 -1 -79 -3 -90 -6z"/>
<path d="M1398 2249 c25 -27 12 -96 -64 -318 -41 -122 -73 -229 -70 -237 8
-21 43 -17 137 15 122 42 169 62 169 73 0 6 -8 7 -17 3 -10 -3 -49 -15 -87
-25 -104 -29 -104 -27 -39 158 38 110 56 178 60 228 5 68 4 73 -18 87 -13 9
-37 19 -54 23 -25 5 -28 4 -17 -7z"/>
<path d="M2092 2208 c-16 -21 -125 -445 -119 -462 8 -21 50 -20 70 2 16 18 65
171 88 277 l13 60 13 -124 c14 -135 28 -171 68 -171 19 0 31 12 55 53 37 65
113 298 104 320 -10 26 -33 20 -39 -10 -32 -151 -100 -346 -119 -340 -15 5
-23 50 -40 222 -14 130 -18 152 -37 168 -25 20 -43 22 -57 5z"/>
<path d="M2462 2138 c-19 -19 -15 -48 7 -48 20 0 37 32 26 50 -8 13 -18 13
-33 -2z"/>
<path d="M2689 2069 c-6 -12 -13 -56 -16 -98 -5 -71 -4 -79 19 -105 30 -36 61
-31 108 16 l32 33 -7 -35 c-17 -83 -47 -160 -66 -174 -16 -11 -28 -12 -51 -4
-37 13 -45 5 -24 -27 24 -36 84 -35 126 3 30 27 80 148 80 195 l0 21 16 -22
c23 -33 58 -28 91 14 l27 36 9 -26 c10 -30 46 -43 75 -27 27 14 32 14 27 -1
-7 -20 11 -42 28 -35 9 3 26 29 38 57 21 48 89 120 114 120 7 0 9 -20 5 -62
-8 -73 2 -118 30 -143 20 -18 22 -18 58 0 36 19 37 19 10 23 -26 3 -26 4 -30
92 -2 69 -7 92 -22 109 -27 30 -59 26 -101 -11 l-36 -31 3 49 c3 43 1 49 -18
52 -21 3 -27 -13 -70 -170 -6 -20 -64 -42 -77 -29 -5 5 -5 26 0 53 11 51 1 88
-23 88 -26 0 -100 -46 -121 -76 l-19 -25 4 70 c4 65 3 71 -16 71 -15 0 -24
-14 -41 -60 -15 -42 -34 -69 -63 -95 -49 -42 -62 -44 -54 -10 9 34 9 161 1
174 -10 18 -34 12 -46 -10z m331 -96 c0 -23 -62 -92 -82 -93 -19 0 -5 35 26
66 32 32 56 43 56 27z"/>
<path d="M2445 2041 c-3 -6 -10 -47 -16 -93 -12 -101 -24 -146 -44 -175 -20
-29 -58 -30 -86 -2 -22 22 -33 21 -24 -3 9 -22 50 -41 86 -40 44 1 74 34 99
105 25 75 29 217 6 217 -8 0 -17 -4 -21 -9z"/>
<path d="M2596 2041 c-71 -7 -96 -33 -103 -108 -8 -79 34 -103 104 -57 31 20
50 86 34 120 -10 23 -9 26 9 31 11 3 20 9 20 14 0 5 -1 8 -2 7 -2 -1 -30 -4
-62 -7z m2 -74 c4 -42 -19 -87 -43 -87 -18 0 -21 80 -4 111 17 33 44 19 47
-24z"/>
<path d="M3513 2030 c-37 -22 -63 -67 -63 -108 0 -38 19 -53 75 -60 37 -4 52
0 85 22 52 34 51 40 -2 16 -72 -33 -108 -22 -108 31 0 38 34 76 75 83 37 7 45
20 19 30 -27 10 -48 7 -81 -14z"/>
<path d="M1602 2014 c-91 -46 -128 -164 -51 -164 22 0 34 8 51 35 27 41 34 43
42 11 8 -33 38 -41 76 -21 39 20 32 31 -9 17 -36 -13 -34 -16 -35 68 -1 57 -3
65 -21 67 -11 2 -35 -4 -53 -13z m17 -56 c-17 -33 -61 -78 -76 -78 -20 0 14
64 46 83 36 23 44 21 30 -5z"/>
<path d="M3695 2006 c-48 -48 -45 -117 6 -135 34 -12 83 3 107 31 10 12 3 11
-27 -4 -31 -15 -44 -17 -60 -8 -30 15 -26 26 18 51 41 23 68 60 57 78 -13 21
-75 13 -101 -13z m75 -3 c0 -12 -43 -53 -57 -53 -21 0 -15 17 13 39 27 21 44
27 44 14z"/>
<path d="M1903 1485 c0 -44 2 -70 4 -57 l4 22 26 -20 c33 -26 44 -17 12 10
l-24 20 24 20 c13 11 21 23 17 27 -3 3 -14 -1 -24 -10 -27 -24 -30 -22 -35 26
-2 23 -4 6 -4 -38z"/>
<path d="M1666 1534 c-9 -9 -16 -32 -16 -54 0 -22 7 -45 16 -54 17 -18 69 -22
79 -6 4 6 -5 7 -23 4 -36 -7 -62 16 -62 55 0 34 32 65 60 58 11 -3 20 -1 20 4
0 15 -58 10 -74 -7z"/>
<path d="M2192 1538 c-15 -15 -15 -35 0 -44 8 -5 9 -2 5 10 -4 10 -1 19 9 23
29 11 27 -8 -5 -41 -53 -54 -21 -102 47 -69 22 11 28 19 24 35 -3 12 -7 15
-11 9 -5 -8 -13 -7 -25 2 -16 12 -17 16 -5 34 10 18 10 24 0 37 -16 19 -23 20
-39 4z m41 -86 c20 -22 13 -32 -20 -32 -16 0 -23 6 -23 18 0 35 19 41 43 14z"/>
<path d="M2367 1543 c-11 -10 -8 -116 3 -133 7 -11 10 -7 10 18 0 27 4 32 24
32 13 0 34 8 47 19 21 16 22 22 11 45 -10 21 -18 26 -50 26 -21 0 -42 -3 -45
-7z m81 -32 c4 -26 -12 -41 -45 -41 -20 0 -23 5 -23 36 0 34 1 35 33 32 25 -2
33 -8 35 -27z"/>
<path d="M3215 1530 c3 -5 8 -10 11 -10 2 0 4 5 4 10 0 6 -5 10 -11 10 -5 0
-7 -4 -4 -10z"/>
<path d="M2648 1518 c-4 -10 -15 -18 -25 -19 -14 0 -13 -2 5 -10 17 -6 22 -14
17 -29 -3 -11 -2 -28 4 -37 8 -15 10 -10 11 24 0 31 4 43 18 46 15 4 15 5 0 6
-9 0 -18 9 -20 19 -3 16 -4 16 -10 0z"/>
<path d="M2021 1494 c-25 -18 -27 -56 -5 -78 18 -18 43 -20 64 -5 12 9 10 10
-8 6 -30 -7 -52 1 -52 19 0 9 12 14 35 14 34 0 44 12 27 36 -13 19 -39 23 -61
8z m53 -19 c4 -11 -2 -15 -24 -15 -29 0 -38 9 -23 23 12 12 41 7 47 -8z"/>
<path d="M2777 1503 c-18 -17 -6 -44 23 -50 17 -3 33 -10 36 -15 10 -15 -17
-28 -46 -22 l-25 4 23 -12 c29 -14 57 0 57 28 0 13 -9 20 -30 24 -39 7 -41 36
-2 33 15 -1 27 2 27 8 0 10 -53 13 -63 2z"/>
<path d="M2884 1495 c-10 -24 4 -45 29 -45 30 0 40 -10 26 -26 -7 -8 -22 -12
-38 -9 -26 5 -26 5 -3 -7 29 -14 57 0 57 28 0 13 -9 20 -30 24 -39 7 -41 36
-2 33 15 -1 27 2 27 8 0 15 -60 10 -66 -6z"/>
<path d="M3008 1499 c-28 -16 -24 -77 6 -90 18 -8 29 -8 42 1 18 11 18 11 -2
7 -23 -5 -54 9 -54 23 0 6 16 10 35 10 28 0 35 4 35 20 0 10 -9 24 -19 30 -23
12 -22 12 -43 -1z m50 -26 c2 -9 -7 -13 -27 -13 -30 0 -39 9 -24 24 11 10 46
3 51 -11z"/>
<path d="M3100 1501 c0 -6 4 -11 9 -11 6 0 11 -21 13 -47 l3 -48 10 45 c8 34
16 46 35 51 23 7 23 7 -7 8 -17 1 -38 4 -47 7 -9 3 -16 1 -16 -5z"/>
<path d="M3291 1493 c-33 -22 -26 -74 12 -87 20 -7 30 -6 40 3 10 11 8 13 -9
9 -23 -6 -54 7 -54 22 0 6 18 10 40 10 43 0 45 2 30 29 -14 27 -35 32 -59 14z
m47 -20 c2 -9 -7 -13 -27 -13 -23 0 -29 4 -24 16 6 17 44 15 51 -3z"/>
<path d="M1782 1488 c-17 -17 -15 -63 3 -78 12 -10 22 -10 39 -2 17 7 27 7 35
-1 8 -8 11 -8 11 0 0 7 -4 15 -10 18 -5 3 -10 16 -10 29 0 26 -17 46 -40 46
-9 0 -21 -5 -28 -12z m48 -13 c18 -22 3 -57 -23 -53 -25 3 -34 32 -17 53 16
19 24 19 40 0z"/>
<path d="M2500 1479 c-23 -42 22 -101 53 -70 7 7 15 7 26 -2 12 -10 14 -9 7 8
-5 11 -11 31 -14 45 -9 44 -53 55 -72 19z m48 2 c21 -13 11 -55 -14 -59 -26
-4 -38 22 -24 49 12 21 18 23 38 10z"/>
<path d="M2721 1453 c-1 -24 4 -43 9 -43 12 0 12 37 0 65 -7 15 -9 10 -9 -22z"/>
<path d="M3223 1450 c0 -25 2 -35 4 -22 2 12 2 32 0 45 -2 12 -4 2 -4 -23z"/>
</g>
</svg>
